# xmcd CD database file
#
# Track frame offsets:
#	150
#	13486
#	27641
#	45107
#	76685
#	95616
#	119008
#	140410
#	157445
#	183118
#	196360
#
# Disc length: 2885 seconds
#
# Revision: 0
# Processed by: cddbd v1.5.2PL0 Copyright (c) Steve Scherf et al.
# Submitted via: CDex 1.70beta2
#
DISCID=940b430b
DTITLE=The Wilno Blues Band - This Is What Is Hip
DYEAR=2008
DGENRE=Blues
TTITLE0=AudioTHonest Manack 01
TTITLE1=My Baby Don't Love Me
TTITLE2=Steal The Night
TTITLE3=Words Of Another
TTITLE4=Going Back
TTITLE5=Jimi James
TTITLE6=So Tired
TTITLE7=Tel Me Baby
TTITLE8=2:00 AM
TTITLE9=Hownd Dawg Blues
TTITLE10=This Is What Is Hip
EXTD=YEAR: 2008
EXTT0=
EXTT1=
EXTT2=
EXTT3=
EXTT4=
EXTT5=
EXTT6=
EXTT7=
EXTT8=
EXTT9=
EXTT10=
PLAYORDER=
